<svg width="512" height="512" viewBox="0 0 512 512" fill="none" xmlns="http://www.w3.org/2000/svg">
<g clip-path="url(#clip0)">
<path d="M256.001 0C159.03 0 80.1387 78.891 80.1387 175.862C80.1387 270.161 242.954 499.202 249.884 508.906C252.832 513.033 259.168 513.033 262.116 508.906C269.046 499.202 431.861 270.161 431.861 175.862C431.862 78.891 352.971 0 256.001 0ZM256.001 491.45C225.896 448.141 95.1697 255.469 95.1697 175.862C95.1697 87.18 167.318 15.031 256.001 15.031C344.684 15.031 416.832 87.179 416.832 175.862C416.832 255.469 286.106 448.141 256.001 491.45Z" fill="white"/>
<path d="M361.662 78.3274C358.846 75.2784 354.091 75.0894 351.041 77.9054C347.992 80.7214 347.803 85.4764 350.619 88.5254C372.638 112.367 384.764 143.385 384.764 175.863C384.764 246.864 327 304.628 255.999 304.628C184.998 304.628 127.234 246.864 127.234 175.863C127.234 104.862 184.999 47.0974 256.001 47.0974C280.239 47.0974 303.85 53.8654 324.283 66.6704C327.752 68.8454 332.468 67.7624 334.642 64.2934C336.816 60.8234 335.734 56.1084 332.264 53.9344C309.437 39.6284 283.065 32.0664 256 32.0664C176.711 32.0664 112.204 96.5734 112.204 175.862C112.204 255.151 176.711 319.658 256 319.658C335.289 319.658 399.796 255.151 399.796 175.862C399.797 139.593 386.254 104.954 361.662 78.3274Z" fill="white"/>
<path d="M331.526 104.889C313.481 84.0814 285.952 72.1484 256.001 72.1484C198.813 72.1484 152.288 118.674 152.288 175.861C152.288 233.048 198.814 279.574 256.001 279.574C260.153 279.574 263.516 276.209 263.516 272.058C263.516 267.907 260.152 264.543 256.001 264.543C207.101 264.543 167.319 224.76 167.319 175.861C167.319 126.961 207.102 87.1794 256.001 87.1794C281.593 87.1794 304.983 97.2244 320.172 114.738C334.299 131.025 340.028 151.794 336.742 174.8C333.938 194.427 321.94 209.598 311.96 212.924C307.727 214.335 304.371 213.605 301.398 210.63C288.847 198.08 295.891 154.471 303.279 129.934C304.477 125.96 302.228 121.766 298.254 120.568C294.285 119.367 290.087 121.618 288.888 125.592C288.17 127.974 285.718 136.405 283.499 147.498C282.899 146.026 282.242 144.587 281.524 143.189C275.228 130.933 265.213 123.066 253.325 121.039C241.445 119.012 229.384 123.113 219.379 132.591C209.963 141.512 203.438 154.277 201.006 168.534C198.574 182.791 200.5 196.998 206.427 208.534C212.723 220.79 222.738 228.657 234.626 230.684C236.612 231.023 238.602 231.19 240.588 231.19C250.483 231.19 260.239 227.024 268.572 219.132C273.697 214.278 277.955 208.279 281.173 201.527C282.822 209.401 285.824 216.313 290.768 221.258C297.715 228.204 307.172 230.361 316.712 227.183C333.583 221.559 348.264 200.423 351.622 176.925C355.485 149.869 348.35 124.287 331.526 104.889ZM272.127 180.663C270.239 191.735 265.305 201.522 258.234 208.221C251.75 214.364 244.266 217.079 237.153 215.868C230.042 214.655 223.88 209.611 219.797 201.666C215.347 193.002 213.935 182.133 215.824 171.061C217.712 159.989 222.646 150.202 229.717 143.503C234.328 139.134 240.242 135.829 246.705 135.589C252.507 135.373 257.976 137.787 262.121 141.773C264.597 144.155 266.589 147.01 268.155 150.059C272.605 158.72 274.016 169.59 272.127 180.663Z" fill="white"/>
</g>
<defs>
<clipPath id="clip0">
<rect width="512.001" height="512.001" fill="white"/>
</clipPath>
</defs>
</svg>
