<svg width="511" height="511" viewBox="0 0 511 511" fill="none" xmlns="http://www.w3.org/2000/svg">
<g clip-path="url(#clip0)">
<path d="M470.599 102.896C469.437 98.9268 465.289 96.6461 461.313 97.8079C457.344 98.9658 455.067 103.122 456.225 107.091C457.858 112.677 458.685 118.486 458.685 124.358C458.685 135.258 455.808 145.968 450.361 155.328C445.063 164.431 437.473 172.1 428.408 177.504L425.274 179.367C423.005 180.72 421.617 183.16 421.617 185.8V195.254H404.116V164.825C412.139 161.909 417.901 154.225 417.901 145.2V128.853C417.901 117.332 408.533 107.96 397.02 107.96H396.245C384.732 107.96 375.364 117.332 375.364 128.853V145.2C375.364 154.225 381.122 161.909 389.145 164.821V195.254H371.648V185.8C371.648 183.16 370.256 180.72 367.991 179.367L364.857 177.504C355.789 172.1 348.198 164.431 342.904 155.328C337.457 145.968 334.576 135.258 334.576 124.358C334.576 90.2446 362.412 62.4942 396.631 62.4942C412.872 62.4942 428.245 68.7359 439.913 80.0731C442.876 82.9502 447.617 82.8801 450.498 79.9171C453.379 76.9542 453.309 72.2134 450.342 69.3323C435.866 55.27 416.79 47.5234 396.631 47.5234C354.159 47.5234 319.605 81.9912 319.605 124.358C319.605 137.897 323.188 151.211 329.96 162.856C336.432 173.979 345.66 183.371 356.677 190.053V196.47C352.697 198.416 349.945 202.49 349.945 207.211V241.437C349.945 248.026 355.305 253.39 361.894 253.39H373.024V263.913C373.024 271.094 378.861 276.934 386.042 276.934H407.223C414.401 276.934 420.245 271.094 420.245 263.913V253.39H431.371C437.96 253.39 443.324 248.026 443.324 241.437V207.211C443.324 202.49 440.568 198.416 436.588 196.47V190.053C447.605 183.371 456.833 173.979 463.305 162.856C470.077 151.211 473.66 137.897 473.66 124.358C473.656 117.067 472.626 109.847 470.599 102.896ZM390.334 128.853C390.334 125.586 392.985 122.931 396.245 122.931H397.02C400.28 122.931 402.931 125.586 402.931 128.853V145.2C402.931 148.467 400.28 151.122 397.02 151.122H396.245C392.985 151.122 390.334 148.467 390.334 145.2V128.853ZM405.27 261.963H387.991V253.39H405.27V261.963ZM428.35 238.42H364.911V210.225H428.35V238.42Z" fill="white"/>
<path d="M396.63 38.3625C400.767 38.3625 404.116 35.0096 404.116 30.8771V18.4639C404.116 14.3274 400.767 10.9785 396.63 10.9785C392.494 10.9785 389.145 14.3274 389.145 18.4639V30.8771C389.145 35.0096 392.498 38.3625 396.63 38.3625Z" fill="white"/>
<path d="M350.931 42.3223C352.174 45.102 354.904 46.7511 357.765 46.7511C358.787 46.7511 359.827 46.5406 360.822 46.1001C364.592 44.408 366.284 39.9831 364.595 36.2092L359.519 24.8759C357.831 21.1021 353.403 19.414 349.629 21.1021C345.859 22.7902 344.167 27.219 345.859 30.9929L350.931 42.3223Z" fill="white"/>
<path d="M311.442 60.0224L320.709 68.307C322.136 69.5818 323.921 70.2134 325.695 70.2134C327.754 70.2134 329.8 69.3713 331.278 67.7183C334.034 64.6345 333.769 59.9015 330.689 57.1452L321.422 48.8606C318.338 46.1043 313.605 46.3694 310.853 49.4532C308.097 52.5331 308.362 57.2661 311.442 60.0224Z" fill="white"/>
<path d="M291.878 100.514L303.726 104.315C304.487 104.557 305.255 104.674 306.015 104.674C309.18 104.674 312.12 102.65 313.138 99.4728C314.401 95.5351 312.233 91.3207 308.295 90.0576L296.448 86.2603C292.51 84.9972 288.296 87.1648 287.032 91.1024C285.773 95.04 287.941 99.2544 291.878 100.514Z" fill="white"/>
<path d="M289.738 145.488C290.011 145.488 290.28 145.473 290.557 145.441L302.927 144.096C307.036 143.652 310.007 139.96 309.559 135.847C309.114 131.738 305.426 128.763 301.309 129.215L288.939 130.56C284.826 131.005 281.859 134.701 282.303 138.81C282.724 142.646 285.968 145.488 289.738 145.488Z" fill="white"/>
<path d="M300.182 174.073C296.611 176.151 295.403 180.736 297.485 184.307C298.876 186.693 301.383 188.027 303.96 188.027C305.239 188.027 306.533 187.699 307.722 187.009L318.467 180.748C322.042 178.666 323.251 174.085 321.169 170.514C319.087 166.939 314.506 165.73 310.931 167.812L300.182 174.073Z" fill="white"/>
<path d="M432.439 46.0961C433.433 46.5406 434.471 46.7511 435.496 46.7511C438.354 46.7511 441.086 45.102 442.33 42.3223L447.406 30.989C449.094 27.2151 447.406 22.7863 443.632 21.0982C439.862 19.4101 435.43 21.0982 433.741 24.872L428.669 36.2053C426.977 39.9792 428.665 44.408 432.439 46.0961Z" fill="white"/>
<path d="M467.566 70.2134C469.34 70.2134 471.125 69.5818 472.552 68.307L481.819 60.0224C484.899 57.2661 485.164 52.5331 482.408 49.4532C479.652 46.3694 474.919 46.1043 471.839 48.8606L462.572 57.1452C459.492 59.9015 459.227 64.6345 461.983 67.7183C463.461 69.3713 465.511 70.2134 467.566 70.2134Z" fill="white"/>
<path d="M480.123 99.4728C481.145 102.65 484.084 104.674 487.25 104.674C488.006 104.674 488.778 104.557 489.539 104.315L501.386 100.514C505.32 99.2544 507.488 95.04 506.229 91.1024C504.965 87.1648 500.747 84.9972 496.813 86.2603L484.965 90.0576C481.028 91.3207 478.86 95.5351 480.123 99.4728Z" fill="white"/>
<path d="M504.322 130.56L491.952 129.215C487.835 128.755 484.147 131.737 483.698 135.846C483.254 139.959 486.221 143.651 490.334 144.1L502.704 145.445C502.981 145.472 503.254 145.488 503.523 145.488C507.293 145.488 510.537 142.646 510.954 138.813C511.402 134.7 508.435 131.008 504.322 130.56Z" fill="white"/>
<path d="M493.075 174.074L482.33 167.813C478.759 165.735 474.174 166.939 472.092 170.51C470.01 174.086 471.219 178.666 474.794 180.748L485.539 187.009C486.724 187.7 488.022 188.027 489.301 188.027C491.878 188.027 494.385 186.694 495.776 184.308C497.854 180.737 496.646 176.152 493.075 174.074Z" fill="white"/>
<path d="M83.4033 183.566H159.321C163.454 183.566 166.807 180.214 166.807 176.081C166.807 171.945 163.454 168.596 159.321 168.596H83.4033C79.2669 168.596 75.918 171.945 75.918 176.081C75.918 180.214 79.2708 183.566 83.4033 183.566Z" fill="white"/>
<path d="M48.4287 371.92H194.292C198.428 371.92 201.777 368.571 201.777 364.435C201.777 360.302 198.428 356.949 194.292 356.949H48.4287C44.2962 356.949 40.9434 360.302 40.9434 364.435C40.9434 368.571 44.2962 371.92 48.4287 371.92Z" fill="white"/>
<path d="M292.939 292.089C292.939 267.609 273.036 247.695 248.576 247.695C224.112 247.695 204.214 267.609 204.214 292.089C204.214 316.568 224.112 336.483 248.576 336.483C273.036 336.483 292.939 316.568 292.939 292.089ZM248.572 262.666C264.264 262.666 277.118 275.036 277.925 290.545C276.72 290.693 275.504 290.787 274.28 290.787C258.588 290.787 245.73 278.413 244.931 262.904C246.124 262.752 247.34 262.666 248.572 262.666ZM219.185 292.089C219.185 282.658 223.649 274.253 230.565 268.865C234.136 289.781 252.374 305.758 274.28 305.758C274.385 305.758 274.49 305.75 274.596 305.75C269.668 315.11 259.859 321.512 248.572 321.512C232.37 321.512 219.185 308.311 219.185 292.089Z" fill="white"/>
<path d="M429.726 410.26L391.827 389.601C386.786 386.852 378.654 384.782 372.911 384.782H242.724V361.008C244.666 361.102 246.615 361.164 248.572 361.164C293.13 361.164 334.607 337.125 356.826 298.432C359.071 294.521 359.071 289.66 356.826 285.742C334.611 247.052 293.13 223.017 248.572 223.017C246.615 223.017 244.666 223.079 242.724 223.169V130.163C242.724 123.286 237.126 117.688 230.249 117.688H92.8185C88.682 117.688 85.3331 121.04 85.3331 125.173C85.3331 129.309 88.682 132.658 92.8185 132.658H227.754V224.783C222.393 225.695 217.126 226.954 211.972 228.545V222.003C211.972 215.122 206.378 209.527 199.497 209.527H43.228C36.3469 209.527 30.7524 215.122 30.7524 222.003V326.28C30.7524 333.157 36.3469 338.755 43.228 338.755H177.364C192.354 349.172 209.547 356.295 227.754 359.398V384.782H137.735C132.023 384.782 127.029 387.862 124.296 392.439H48.4287C44.2962 392.439 40.9434 395.792 40.9434 399.925C40.9434 404.061 44.2962 407.41 48.4287 407.41H122.082V427.932H48.4287C44.2962 427.932 40.9434 431.281 40.9434 435.418C40.9434 439.55 44.2962 442.903 48.4287 442.903H122.198C123.111 450.657 129.727 456.7 137.735 456.7H227.754V485.449H14.9707V132.658H56.8887C61.0252 132.658 64.3741 129.309 64.3741 125.173C64.3741 121.04 61.0252 117.688 56.8887 117.688H12.4756C5.59453 117.688 0 123.286 0 130.163V487.94C0 494.821 5.59453 500.415 12.4756 500.415H230.249C237.126 500.415 242.724 494.821 242.724 487.94V456.7H372.911C378.654 456.7 386.786 454.626 391.827 451.878L429.73 431.219C434.085 428.841 436.584 425.024 436.584 420.739C436.584 416.459 434.085 412.638 429.726 410.26ZM169.442 441.729H137.735C137.38 441.729 137.052 441.414 137.052 441.071V400.412C137.052 400.069 137.376 399.753 137.735 399.753H169.442V441.729ZM45.7231 323.784V224.498H197.001V234.233C173.567 244.904 153.536 262.732 140.327 285.742C138.078 289.66 138.078 294.525 140.327 298.436C145.696 307.788 152.198 316.276 159.594 323.784H45.7231ZM153.953 292.089C173.653 258.681 209.789 237.987 248.576 237.987C287.36 237.987 323.496 258.685 343.2 292.089C323.492 325.492 287.356 346.194 248.576 346.194C209.793 346.194 173.656 325.5 153.953 292.089ZM362.135 413.254H331.352C327.215 413.254 323.867 416.607 323.867 420.739C323.867 424.876 327.215 428.225 331.352 428.225H362.135V441.729H184.413V428.225H296.42C300.553 428.225 303.906 424.876 303.906 420.739C303.906 416.607 300.553 413.254 296.42 413.254H184.413V399.753H362.135V413.254ZM393.184 434.088L384.662 438.735C382.857 439.718 379.866 440.669 377.106 441.223V400.256C379.87 400.813 382.857 401.761 384.662 402.743L393.184 407.39V434.088ZM408.155 425.928V415.554L417.671 420.739L408.155 425.928Z" fill="white"/>
</g>
<defs>
<clipPath id="clip0">
<rect width="511" height="511" fill="white"/>
</clipPath>
</defs>
</svg>
