<svg width="512" height="512" viewBox="0 0 512 512" fill="none" xmlns="http://www.w3.org/2000/svg">
<g clip-path="url(#clip0)">
<path d="M415.308 275.166L374.201 316.274C373.664 315.624 373.095 314.991 372.487 314.383L319.398 261.294C316.462 258.359 311.704 258.359 308.769 261.294C305.834 264.229 305.834 268.988 308.769 271.922L361.858 325.011C366.423 329.574 366.423 337 361.859 341.563C357.293 346.126 349.868 346.127 345.306 341.563L315.805 312.063C312.869 309.128 308.112 309.128 305.177 312.063C302.242 314.997 302.242 319.756 305.177 322.69L334.677 352.19C334.678 352.191 334.681 352.192 334.682 352.194C336.89 354.405 338.106 357.342 338.106 360.467C338.106 363.593 336.889 366.532 334.677 368.744C332.467 370.954 329.528 372.172 326.402 372.172C323.275 372.172 320.337 370.954 318.126 368.744L288.626 339.243C285.69 336.308 280.932 336.308 277.997 339.243C275.062 342.178 275.062 346.937 277.997 349.871L307.498 379.371C312.062 383.935 312.062 391.361 307.499 395.924C305.287 398.135 302.347 399.353 299.221 399.353C296.095 399.353 293.156 398.135 290.945 395.925L261.445 366.424C258.509 363.489 253.751 363.489 250.816 366.424C247.881 369.359 247.881 374.118 250.816 377.052L280.317 406.552C284.881 411.115 284.881 418.541 280.317 423.105C278.106 425.315 275.167 426.532 272.041 426.532C268.915 426.532 265.976 425.315 263.765 423.105L244.654 403.993C250.743 393.846 249.422 380.46 240.684 371.722L240.231 371.269C234.409 365.447 226.522 362.919 218.905 363.68C218.477 357.305 215.797 351.369 211.235 346.808C207.707 343.279 203.421 340.961 198.896 339.851C200.049 336.858 200.659 333.648 200.659 330.344C200.659 323.288 197.912 316.655 192.922 311.666C187.933 306.677 181.3 303.929 174.244 303.929C170.223 303.929 166.341 304.824 162.821 306.515C161.636 302.309 159.399 298.34 156.095 295.036C145.797 284.737 129.039 284.738 118.739 295.036L115.64 298.135L113.38 295.876C109.746 292.242 107.745 287.411 107.745 282.271V262.672C107.745 260.679 106.953 258.767 105.544 257.358L73.4615 225.275L82.4827 216.253C85.4176 213.318 85.4176 208.56 82.4817 205.626C79.5477 202.69 74.7891 202.691 71.8542 205.626L59.7698 217.711C57.4912 219.99 53.7817 219.991 51.5031 217.711L12.8301 179.037C9.8952 176.102 5.1376 176.102 2.20168 179.037C-0.733242 181.972 -0.733242 186.73 2.20168 189.665L40.8757 228.339C44.9459 232.408 50.2907 234.442 55.6355 234.442C57.3469 234.442 59.0534 234.209 60.7227 233.793L92.7143 265.783V282.27C92.7143 291.424 96.2795 300.029 102.752 306.502L105.012 308.763L102.497 311.278C97.508 316.267 94.7594 322.9 94.7594 329.957C94.7594 337.013 97.507 343.646 102.496 348.634C107.646 353.784 114.411 356.359 121.176 356.359C121.283 356.359 121.39 356.353 121.497 356.351C121.496 356.462 121.489 356.572 121.489 356.685C121.489 363.741 124.237 370.374 129.226 375.362C134.215 380.351 140.849 383.099 147.905 383.099C148.016 383.099 148.127 383.092 148.238 383.091C148.155 389.962 150.723 396.86 155.954 402.09C161.104 407.24 167.869 409.815 174.634 409.815C174.745 409.815 174.856 409.808 174.966 409.807C174.88 416.682 177.448 423.585 182.683 428.819L183.136 429.272C188.125 434.261 194.758 437.009 201.813 437.009C208.87 437.009 215.503 434.261 220.492 429.272L234.586 415.18L253.139 433.733C258.188 438.783 264.902 441.564 272.043 441.564C279.185 441.564 285.898 438.783 290.947 433.733C296.275 428.405 298.872 421.37 298.754 414.372C298.91 414.375 299.066 414.383 299.223 414.383C306.364 414.383 313.078 411.602 318.128 406.552C323.459 401.221 326.056 394.18 325.935 387.179C326.091 387.182 326.247 387.19 326.404 387.19C333.249 387.189 340.096 384.583 345.307 379.372C350.357 374.323 353.138 367.61 353.138 360.468C353.138 360.311 353.129 360.156 353.127 359.999C353.279 360.002 353.431 360.01 353.584 360.01C360.429 360.01 367.276 357.404 372.489 352.192C378.156 346.525 380.734 338.926 380.239 331.496L425.94 285.796C428.875 282.861 428.875 278.102 425.94 275.168C423.002 272.231 418.244 272.231 415.308 275.166ZM113.123 338.006C110.973 335.856 109.79 332.997 109.79 329.957C109.79 326.915 110.974 324.057 113.124 321.906L129.366 305.665C131.587 303.445 134.502 302.335 137.417 302.335C140.332 302.335 143.247 303.444 145.467 305.664C149.906 310.104 149.906 317.326 145.467 321.764L129.224 338.007C124.785 342.446 117.563 342.445 113.123 338.006ZM147.903 368.07C144.863 368.07 142.003 366.885 139.852 364.735C137.702 362.584 136.519 359.726 136.519 356.686C136.519 353.645 137.703 350.786 139.853 348.635L156.096 332.393L166.195 322.294C168.345 320.144 171.203 318.959 174.244 318.959C177.285 318.959 180.144 320.144 182.293 322.294C184.443 324.445 185.628 327.304 185.628 330.344C185.628 333.385 184.443 336.244 182.293 338.395L155.952 364.736C153.802 366.885 150.944 368.07 147.903 368.07ZM166.58 391.463C162.141 387.024 162.141 379.801 166.58 375.362L184.507 357.434C186.727 355.216 189.642 354.106 192.558 354.106C195.473 354.106 198.389 355.217 200.607 357.435C202.757 359.585 203.942 362.445 203.942 365.485C203.942 368.524 202.759 371.381 200.611 373.531L182.68 391.462C178.242 395.902 171.019 395.902 166.58 391.463ZM209.861 418.644C207.71 420.794 204.853 421.978 201.811 421.978C198.771 421.978 195.912 420.794 193.762 418.644L193.31 418.192C188.87 413.753 188.87 406.53 193.31 402.091L211.236 384.165C211.242 384.159 211.247 384.153 211.252 384.148L213.502 381.897C215.722 379.678 218.637 378.569 221.553 378.569C224.468 378.569 227.384 379.679 229.602 381.897L230.054 382.349C234.494 386.788 234.494 394.011 230.054 398.45L209.861 418.644Z" fill="white"/>
<path d="M509.8 210.701C506.865 207.766 502.107 207.765 499.171 210.701L471.009 238.864C470.621 239.252 469.983 239.258 469.587 238.88L370.024 143.775C369.818 143.579 369.712 143.335 369.709 143.051C369.706 142.766 369.807 142.52 370.008 142.319L429.06 83.2681C431.995 80.3332 431.995 75.5746 429.06 72.6406C426.125 69.7057 421.367 69.7057 418.432 72.6406L359.379 131.692C356.299 134.773 354.631 138.868 354.681 143.224C354.722 146.735 355.892 150.041 357.988 152.771L330.963 179.274L305.501 165.073C302.173 163.216 298.4 162.235 294.59 162.235H222.244L216.738 156.73C211.621 151.614 205.599 147.714 198.838 145.138L178.811 137.508L169.556 128.253C174.342 120.238 173.312 109.69 166.417 102.796L136.261 72.6406C133.326 69.7057 128.569 69.7057 125.633 72.6406C122.698 75.5756 122.698 80.3342 125.633 83.2681L155.789 113.424C158.067 115.703 158.067 119.411 155.789 121.691L94.502 182.977C91.5671 185.912 91.5671 190.671 94.502 193.605C95.9699 195.072 97.8938 195.806 99.8167 195.806C101.74 195.806 103.663 195.073 105.131 193.605L159.392 139.344L169.319 149.271C170.068 150.021 170.968 150.603 171.958 150.981L193.488 159.183C198.133 160.954 202.279 163.617 205.827 167.09C205.371 167.474 204.923 167.871 204.496 168.298L175.914 196.881C170.242 202.553 167.118 210.095 167.118 218.116C167.118 226.137 170.242 233.679 175.913 239.351C181.774 245.212 189.441 248.185 197.141 248.185C203.871 248.185 210.625 245.913 216.22 241.314L237.849 223.532H260.38L286.124 249.276C287.592 250.743 289.515 251.477 291.438 251.477C293.361 251.477 295.285 250.744 296.753 249.276C299.688 246.341 299.688 241.583 296.753 238.649L278.154 220.05C278.899 218.884 279.336 217.503 279.336 216.017C279.336 211.867 275.972 208.502 271.821 208.502H235.156C233.415 208.502 231.728 209.106 230.383 210.212L206.674 229.704C200.679 234.63 192.027 234.209 186.542 228.724C183.708 225.89 182.148 222.123 182.148 218.117C182.148 214.111 183.708 210.343 186.542 207.511L215.124 178.927C216.193 177.857 217.616 177.268 219.129 177.268H294.589C295.842 177.268 297.083 177.59 298.178 178.202L326.339 193.907C330.519 196.241 335.835 195.535 339.272 192.176L368.708 163.307L449.753 240.722L437.955 252.52C435.02 255.454 435.02 260.213 437.956 263.147C439.423 264.615 441.347 265.348 443.27 265.348C445.193 265.348 447.116 264.615 448.584 263.147L460.722 251.01C463.544 253.101 466.911 254.156 470.285 254.156C474.409 254.156 478.532 252.598 481.636 249.492L509.8 221.331C512.734 218.394 512.734 213.636 509.8 210.701Z" fill="white"/>
</g>
<defs>
<clipPath id="clip0">
<rect width="512" height="512" fill="white"/>
</clipPath>
</defs>
</svg>
