<svg width="512" height="512" viewBox="0 0 512 512" fill="none" xmlns="http://www.w3.org/2000/svg">
<path d="M504.5 185.105C500.358 185.105 497 188.462 497 192.605V416.999C497 431.611 485.112 443.499 470.5 443.499H41.5C26.888 443.499 15 431.611 15 416.999V383.861C15 379.718 11.642 376.361 7.5 376.361C3.358 376.361 0 379.718 0 383.861V416.999C0 439.882 18.617 458.499 41.5 458.499H470.5C493.383 458.499 512 439.882 512 416.999V192.605C512 188.463 508.642 185.105 504.5 185.105Z" fill="white"/>
<path d="M470.5 53.5H256C251.858 53.5 248.5 56.857 248.5 61C248.5 65.143 251.858 68.5 256 68.5H470.5C485.112 68.5 497 80.388 497 95V133.5H407.984V102.471C407.984 90.08 397.903 80 385.455 80C373.065 80 362.984 90.08 362.984 102.471V133.5H15V95C15 80.388 26.888 68.5 41.5 68.5H223.682C227.824 68.5 231.182 65.143 231.182 61C231.182 56.857 227.824 53.5 223.682 53.5H41.5C18.617 53.5 0 72.117 0 95V351.49C0 355.633 3.358 358.99 7.5 358.99C11.642 358.99 15 355.633 15 351.49V148.5H362.984C363.2 307.793 362.238 309.723 363.422 313.029L373.665 343.791C373.739 344.015 373.824 344.234 373.919 344.449C378.348 354.487 392.612 354.504 397.049 344.449C397.144 344.234 397.229 344.014 397.303 343.791L407.546 313.029C408.624 310.02 407.759 314.539 407.984 148.5H497V160.336C497 164.479 500.358 167.836 504.5 167.836C508.642 167.836 512 164.479 512 160.336V95C512 72.117 493.383 53.5 470.5 53.5ZM377.984 231.995H392.984V302.999H377.984V231.995ZM377.984 216.995V122.501H392.984V140.768C392.982 140.845 392.98 140.922 392.98 141C392.98 141.078 392.982 141.155 392.984 141.232V216.995H377.984ZM377.984 102.471C377.984 98.352 381.336 95 385.513 95C389.632 95 392.984 98.352 392.984 102.471V107.501H377.984V102.471ZM385.484 331.807L380.886 317.999H390.081L385.484 331.807Z" fill="white"/>
<path d="M40.5 100.672C40.5 113.63 51.042 124.172 64 124.172C76.958 124.172 87.5 113.63 87.5 100.672C87.5 87.7139 76.958 77.1719 64 77.1719C51.042 77.1719 40.5 87.7139 40.5 100.672ZM72.5 100.672C72.5 105.359 68.687 109.172 64 109.172C59.313 109.172 55.5 105.359 55.5 100.672C55.5 95.9849 59.313 92.1719 64 92.1719C68.687 92.1719 72.5 95.9849 72.5 100.672Z" fill="white"/>
<path d="M97.5 100.672C97.5 113.63 108.042 124.172 121 124.172C133.958 124.172 144.5 113.63 144.5 100.672C144.5 87.7139 133.958 77.1719 121 77.1719C108.042 77.1719 97.5 87.7139 97.5 100.672ZM129.5 100.672C129.5 105.359 125.687 109.172 121 109.172C116.313 109.172 112.5 105.359 112.5 100.672C112.5 95.9849 116.313 92.1719 121 92.1719C125.687 92.1719 129.5 95.9849 129.5 100.672Z" fill="white"/>
<path d="M154.5 100.672C154.5 113.63 165.042 124.172 178 124.172C190.958 124.172 201.5 113.63 201.5 100.672C201.5 87.7139 190.958 77.1719 178 77.1719C165.042 77.1719 154.5 87.7139 154.5 100.672ZM186.5 100.672C186.5 105.359 182.687 109.172 178 109.172C173.313 109.172 169.5 105.359 169.5 100.672C169.5 95.9849 173.313 92.1719 178 92.1719C182.687 92.1719 186.5 95.9849 186.5 100.672Z" fill="white"/>
<path d="M147 266.943C153.341 266.943 158.5 261.784 158.5 255.443V203.443C158.5 197.102 153.341 191.943 147 191.943H95C88.659 191.943 83.5 197.102 83.5 203.443V255.443C83.5 261.784 88.659 266.943 95 266.943H147ZM98.5 206.943H143.5V251.943H98.5V206.943Z" fill="white"/>
<path d="M194 198.5H307.448C311.59 198.5 314.948 195.143 314.948 191C314.948 186.857 311.59 183.5 307.448 183.5H194C189.858 183.5 186.5 186.857 186.5 191C186.5 195.143 189.858 198.5 194 198.5Z" fill="white"/>
<path d="M194 236.943H307.448C311.59 236.943 314.948 233.586 314.948 229.443C314.948 225.3 311.59 221.943 307.448 221.943H194C189.858 221.943 186.5 225.3 186.5 229.443C186.5 233.586 189.858 236.943 194 236.943Z" fill="white"/>
<path d="M194 274.996H307.448C311.59 274.996 314.948 271.639 314.948 267.496C314.948 263.353 311.59 259.996 307.448 259.996H194C189.858 259.996 186.5 263.353 186.5 267.496C186.5 271.639 189.858 274.996 194 274.996Z" fill="white"/>
<path d="M72.5 305.551C72.5 309.694 75.858 313.051 80 313.051H307.448C311.59 313.051 314.948 309.694 314.948 305.551C314.948 301.408 311.59 298.051 307.448 298.051H80C75.858 298.051 72.5 301.408 72.5 305.551Z" fill="white"/>
<path d="M80 351.104H307.448C311.59 351.104 314.948 347.747 314.948 343.604C314.948 339.461 311.59 336.104 307.448 336.104H80C75.858 336.104 72.5 339.461 72.5 343.604C72.5 347.747 75.858 351.104 80 351.104Z" fill="white"/>
<path d="M80 389.154H432.984C437.126 389.154 440.484 385.797 440.484 381.654C440.484 377.511 437.126 374.154 432.984 374.154H80C75.858 374.154 72.5 377.511 72.5 381.654C72.5 385.797 75.858 389.154 80 389.154Z" fill="white"/>
</svg>
