<svg width="512" height="512" viewBox="0 0 512 512" fill="none" xmlns="http://www.w3.org/2000/svg">
<g clip-path="url(#clip0)">
<path d="M58.7349 71.6816C54.5919 71.6816 51.2349 75.0386 51.2349 79.1816C51.2349 83.3246 54.5919 86.6816 58.7349 86.6816H69.0389C73.1819 86.6816 76.5389 83.3246 76.5389 79.1816C76.5389 75.0386 73.1819 71.6816 69.0389 71.6816H58.7349Z" fill="white"/>
<path d="M109.65 71.6816C105.507 71.6816 102.15 75.0386 102.15 79.1816C102.15 83.3246 105.507 86.6816 109.65 86.6816H119.955C124.098 86.6816 127.455 83.3246 127.455 79.1816C127.455 75.0386 124.098 71.6816 119.955 71.6816H109.65Z" fill="white"/>
<path d="M170.871 86.6816C175.014 86.6816 178.371 83.3246 178.371 79.1816C178.371 75.0386 175.014 71.6816 170.871 71.6816H160.566C156.423 71.6816 153.066 75.0386 153.066 79.1816C153.066 83.3246 156.423 86.6816 160.566 86.6816H170.871Z" fill="white"/>
<path d="M368.073 302.689C371.001 305.617 375.75 305.62 378.679 302.69C381.609 299.761 381.609 295.012 378.68 292.084L240.643 154.02C237.714 151.09 232.965 151.091 230.037 154.019C227.107 156.948 227.107 161.697 230.036 164.625L232.442 167.031L215.765 207.461C212.825 205.214 208.607 205.427 205.919 208.115C202.989 211.044 202.989 215.793 205.918 218.721L209.601 222.404L196.608 253.901L140.301 310.197C132.012 318.484 132.011 331.969 140.298 340.258L141.311 341.271L136.009 346.572L135.99 346.553C133.061 343.624 128.312 343.623 125.384 346.552C122.454 349.481 122.454 354.23 125.383 357.158L125.88 357.655C116.656 371.418 118.114 390.268 130.263 402.419C137.171 409.328 146.243 412.782 155.319 412.782C162.204 412.782 169.087 410.788 175.026 406.809L175.523 407.306C176.988 408.771 178.907 409.503 180.827 409.503C182.746 409.503 184.666 408.771 186.13 407.307C189.06 404.378 189.06 399.629 186.131 396.701L186.112 396.682L191.414 391.381L192.426 392.394C196.571 396.54 202.013 398.612 207.458 398.612C212.899 398.612 218.343 396.54 222.486 392.397L223.525 391.358L243.36 411.196C246.282 414.12 251.031 414.131 253.966 411.197C256.895 408.269 256.896 403.52 253.967 400.591L234.132 380.752L257.884 357.004L273.402 372.526C273.518 372.641 273.556 372.816 273.501 372.969L269.635 383.651C267.608 389.253 269.02 395.592 273.232 399.805L294.954 421.531C296.878 423.456 296.878 426.587 294.953 428.511L291.907 431.556C289.983 433.48 286.85 433.48 284.927 431.554L275.17 421.796C272.24 418.868 267.492 418.868 264.563 421.796C261.634 424.726 261.634 429.474 264.563 432.403L274.32 442.16C282.089 449.931 294.739 449.938 302.513 442.163L305.559 439.118C313.332 431.346 313.334 418.698 305.562 410.925L283.84 389.198C283.724 389.083 283.686 388.909 283.741 388.756L287.607 378.073C289.633 372.471 288.222 366.13 284.01 361.919L268.492 346.398L278.794 336.098L310.29 323.113L313.974 326.797C316.902 329.725 321.651 329.728 324.58 326.798C327.269 324.11 327.483 319.891 325.236 316.951L365.668 300.282L368.073 302.689ZM191.193 300.963C191.192 300.964 191.192 300.964 191.193 300.963L178.086 314.067C176.202 315.951 173.161 315.944 171.283 314.066L164.466 307.248L184.376 287.342L191.193 294.162C193.077 296.044 193.07 299.086 191.193 300.963ZM140.869 391.813C137.011 387.954 134.886 382.823 134.887 377.366C134.887 374.294 135.583 371.335 136.861 368.639L164.036 395.819C156.456 399.39 147.125 398.071 140.869 391.813ZM180.806 380.773L175.504 386.074L146.614 357.179L151.916 351.878C162.02 361.984 170.701 370.667 180.806 380.773ZM203.031 381.788C188.792 367.547 159.121 337.869 150.905 329.652C148.467 327.213 148.467 323.244 150.906 320.804L153.858 317.853L160.676 324.672C168.409 332.407 180.951 332.419 188.693 324.675L201.798 311.571C209.541 303.83 209.544 291.298 201.801 283.555L194.983 276.735L202.97 268.751L263.943 329.734L218.232 375.437C218.228 375.441 218.224 375.444 218.221 375.447C218.218 375.45 218.215 375.455 218.211 375.458L211.879 381.789C209.438 384.229 205.47 384.227 203.031 381.788ZM276.315 320.895C268.648 313.226 219.508 264.078 211.811 256.38L221.086 233.895L298.801 311.625L276.315 320.895ZM313.822 305.431L227.282 218.875L243.928 178.521L354.18 288.793L313.822 305.431Z" fill="white"/>
<path d="M344.297 177.779L324.202 197.874C321.273 200.804 321.273 205.552 324.202 208.481C327.133 211.41 331.88 211.409 334.809 208.481L354.904 188.386C357.833 185.456 357.833 180.708 354.904 177.779C351.975 174.852 347.227 174.852 344.297 177.779Z" fill="white"/>
<path d="M297.716 175.945V147.527C297.716 143.384 294.359 140.027 290.216 140.027C286.073 140.027 282.716 143.384 282.716 147.527V175.945C282.716 180.088 286.073 183.445 290.216 183.445C294.359 183.445 297.716 180.088 297.716 175.945Z" fill="white"/>
<path d="M348.694 242.693C348.694 246.836 352.051 250.193 356.194 250.193H384.612C388.755 250.193 392.112 246.836 392.112 242.693C392.112 238.55 388.755 235.193 384.612 235.193H356.194C352.052 235.193 348.694 238.551 348.694 242.693Z" fill="white"/>
<path d="M122.303 175.945C122.303 171.802 118.946 168.445 114.803 168.445H50.644C46.501 168.445 43.144 171.802 43.144 175.945C43.144 180.088 46.501 183.445 50.644 183.445H114.803C118.945 183.445 122.303 180.088 122.303 175.945Z" fill="white"/>
<path d="M50.644 205.92C46.501 205.92 43.144 209.277 43.144 213.42C43.144 217.563 46.501 220.92 50.644 220.92H94.803C98.946 220.92 102.303 217.563 102.303 213.42C102.303 209.277 98.946 205.92 94.803 205.92H50.644Z" fill="white"/>
<path d="M456.049 365.523H349.601C345.458 365.523 342.101 368.88 342.101 373.023C342.101 377.166 345.458 380.523 349.601 380.523H456.049C460.192 380.523 463.549 377.166 463.549 373.023C463.549 368.88 460.191 365.523 456.049 365.523Z" fill="white"/>
<path d="M456.049 398.568H389.601C385.458 398.568 382.101 401.925 382.101 406.068C382.101 410.211 385.458 413.568 389.601 413.568H456.049C460.192 413.568 463.549 410.211 463.549 406.068C463.549 401.925 460.191 398.568 456.049 398.568Z" fill="white"/>
<path d="M460.651 33.668H160.673C156.53 33.668 153.173 37.025 153.173 41.168C153.173 45.311 156.53 48.668 160.673 48.668H460.652C480.694 48.668 497 64.974 497 85.017V109.696H15V85.017C15 64.974 31.306 48.668 51.348 48.668H130.686C134.829 48.668 138.186 45.311 138.186 41.168C138.186 37.025 134.829 33.668 130.686 33.668H51.348C23.034 33.668 0 56.703 0 85.017V426.986C0 455.299 23.034 478.334 51.348 478.334H460.652C488.965 478.334 512 455.3 512 426.986V408.396C512 404.253 508.643 400.896 504.5 400.896C500.357 400.896 497 404.253 497 408.396V426.986C497 447.028 480.694 463.334 460.652 463.334H51.348C31.306 463.333 15 447.027 15 426.985V124.695H496.999V378.408C496.999 382.551 500.356 385.908 504.499 385.908C508.642 385.908 511.999 382.551 511.999 378.408V85.017C511.999 56.703 488.965 33.668 460.651 33.668Z" fill="white"/>
</g>
<defs>
<clipPath id="clip0">
<rect width="512" height="512" fill="white"/>
</clipPath>
</defs>
</svg>
