<svg width="512" height="512" viewBox="0 0 512 512" fill="none" xmlns="http://www.w3.org/2000/svg">
<path d="M483.781 51.8311H80.898C76.755 51.8311 73.398 55.1881 73.398 59.3311C73.398 63.4741 76.755 66.8311 80.898 66.8311H483.781C491.07 66.8311 497 72.7621 497 80.0511V106.275H15V80.0501C15 72.7611 20.931 66.8301 28.22 66.8301H50.911C55.054 66.8301 58.411 63.4731 58.411 59.3301C58.411 55.1871 55.054 51.8301 50.911 51.8301H28.22C12.659 51.8311 0 64.4901 0 80.0501V431.95C0 447.51 12.659 460.169 28.22 460.169H380.789C384.932 460.169 388.289 456.812 388.289 452.669C388.289 448.526 384.932 445.169 380.789 445.169H28.22C20.931 445.169 15 439.239 15 431.95V121.274H497V431.951C497 439.24 491.07 445.17 483.781 445.17H410.776C406.633 445.17 403.276 448.527 403.276 452.67C403.276 456.813 406.633 460.17 410.776 460.17H483.781C499.341 460.17 512 447.511 512 431.951V80.0501C512 64.4901 499.341 51.8311 483.781 51.8311Z" fill="white"/>
<path d="M52.459 79.0527H46.147C42.004 79.0527 38.647 82.4097 38.647 86.5527C38.647 90.6957 42.004 94.0527 46.147 94.0527H52.459C56.602 94.0527 59.959 90.6957 59.959 86.5527C59.959 82.4097 56.602 79.0527 52.459 79.0527Z" fill="white"/>
<path d="M91.6289 94.0527C95.7719 94.0527 99.1289 90.6957 99.1289 86.5527C99.1289 82.4097 95.7719 79.0527 91.6289 79.0527H85.3169C81.1739 79.0527 77.8169 82.4097 77.8169 86.5527C77.8169 90.6957 81.1739 94.0527 85.3169 94.0527H91.6289Z" fill="white"/>
<path d="M130.8 94.0527C134.943 94.0527 138.3 90.6957 138.3 86.5527C138.3 82.4097 134.943 79.0527 130.8 79.0527H124.488C120.345 79.0527 116.988 82.4097 116.988 86.5527C116.988 90.6957 120.345 94.0527 124.488 94.0527H130.8Z" fill="white"/>
<path d="M210.634 154.596H83.9968C75.5018 154.596 68.5908 161.507 68.5908 170.002V221.596V221.668V255.934C68.5908 264.429 75.5018 271.34 83.9968 271.34H210.634C219.129 271.34 226.041 264.429 226.041 255.934V170.002C226.041 161.507 219.129 154.596 210.634 154.596ZM83.9968 169.596H210.634C210.859 169.596 211.041 169.779 211.041 170.002V214.525L189.849 204.66C186.722 203.204 183.15 203.241 180.052 204.762L144.4 222.264L118.182 202.288C114.982 199.851 110.685 199.29 106.965 200.824L83.5908 210.475V170.001C83.5908 169.779 83.7728 169.596 83.9968 169.596ZM210.634 256.34H83.9968C83.7728 256.34 83.5908 256.157 83.5908 255.934V226.705L110.756 215.488L137.102 235.562C139.128 237.105 141.539 237.894 143.971 237.894C145.674 237.894 147.388 237.507 148.989 236.721L185.098 218.994L211.041 231.072V255.934C211.041 256.158 210.858 256.34 210.634 256.34Z" fill="white"/>
<path d="M101.575 189.648H104.489C108.632 189.648 111.989 186.291 111.989 182.148C111.989 178.005 108.632 174.648 104.489 174.648H101.575C97.4322 174.648 94.0752 178.005 94.0752 182.148C94.0752 186.291 97.4332 189.648 101.575 189.648Z" fill="white"/>
<path d="M318.944 174.648C314.801 174.648 311.444 178.005 311.444 182.148C311.444 186.291 314.801 189.648 318.944 189.648H321.859C326.002 189.648 329.359 186.291 329.359 182.148C329.359 178.005 326.002 174.648 321.859 174.648H318.944Z" fill="white"/>
<path d="M122.66 318.367C122.66 303.46 110.532 291.332 95.6248 291.332C80.7188 291.332 68.5908 303.46 68.5908 318.367C68.5908 333.273 80.7188 345.401 95.6248 345.401C110.532 345.401 122.66 333.273 122.66 318.367ZM95.6248 330.401C88.9888 330.401 83.5908 325.003 83.5908 318.367C83.5908 311.731 88.9888 306.332 95.6248 306.332C102.261 306.332 107.66 311.731 107.66 318.367C107.66 325.003 102.261 330.401 95.6248 330.401Z" fill="white"/>
<path d="M134.863 306.332H179.55C183.693 306.332 187.05 302.975 187.05 298.832C187.05 294.689 183.693 291.332 179.55 291.332H134.863C130.72 291.332 127.363 294.689 127.363 298.832C127.363 302.975 130.721 306.332 134.863 306.332Z" fill="white"/>
<path d="M134.863 333.158H218.541C222.684 333.158 226.041 329.801 226.041 325.658C226.041 321.515 222.684 318.158 218.541 318.158H134.863C130.72 318.158 127.363 321.515 127.363 325.658C127.363 329.801 130.721 333.158 134.863 333.158Z" fill="white"/>
<path d="M285.96 318.367C285.96 333.273 298.088 345.401 312.995 345.401C327.901 345.401 340.029 333.273 340.029 318.367C340.029 303.46 327.901 291.332 312.995 291.332C298.088 291.332 285.96 303.459 285.96 318.367ZM325.029 318.367C325.029 325.003 319.631 330.401 312.995 330.401C306.359 330.401 300.96 325.003 300.96 318.367C300.96 311.731 306.359 306.332 312.995 306.332C319.631 306.332 325.029 311.731 325.029 318.367Z" fill="white"/>
<path d="M352.232 306.332H396.919C401.062 306.332 404.419 302.975 404.419 298.832C404.419 294.689 401.062 291.332 396.919 291.332H352.232C348.089 291.332 344.732 294.689 344.732 298.832C344.732 302.975 348.09 306.332 352.232 306.332Z" fill="white"/>
<path d="M352.232 333.158H435.91C440.053 333.158 443.41 329.801 443.41 325.658C443.41 321.515 440.053 318.158 435.91 318.158H352.232C348.089 318.158 344.732 321.515 344.732 325.658C344.732 329.801 348.09 333.158 352.232 333.158Z" fill="white"/>
<path d="M108.591 370.449C108.591 374.592 111.948 377.949 116.091 377.949H395.91C400.053 377.949 403.41 374.592 403.41 370.449C403.41 366.306 400.053 362.949 395.91 362.949H116.091C111.948 362.949 108.591 366.306 108.591 370.449Z" fill="white"/>
<path d="M76.0908 413.025H435.91C440.053 413.025 443.41 409.668 443.41 405.525C443.41 401.382 440.053 398.025 435.91 398.025H76.0908C71.9478 398.025 68.5908 401.382 68.5908 405.525C68.5908 409.668 71.9478 413.025 76.0908 413.025Z" fill="white"/>
<path d="M367.083 162.096C367.083 157.953 363.726 154.596 359.583 154.596H301.366C292.871 154.596 285.96 161.507 285.96 170.002V221.596V221.668V255.934C285.96 264.429 292.871 271.34 301.366 271.34H428.003C436.498 271.34 443.41 264.429 443.41 255.934V170.002C443.41 161.507 436.498 154.596 428.003 154.596H389.569C385.426 154.596 382.069 157.953 382.069 162.096C382.069 166.239 385.426 169.596 389.569 169.596H428.003C428.228 169.596 428.41 169.779 428.41 170.002V214.525L407.218 204.66C404.092 203.206 400.523 203.24 397.422 204.762L361.769 222.264L335.551 202.288C332.353 199.851 328.055 199.289 324.334 200.824L300.96 210.475V170.001C300.96 169.777 301.143 169.595 301.366 169.595H359.583C363.726 169.596 367.083 166.239 367.083 162.096ZM328.125 215.488L354.47 235.56C356.496 237.105 358.908 237.895 361.34 237.895C363.043 237.895 364.758 237.507 366.358 236.721L402.468 218.994L428.41 231.072V255.934C428.41 256.158 428.227 256.34 428.003 256.34H301.366C301.142 256.34 300.96 256.157 300.96 255.934V226.705L328.125 215.488Z" fill="white"/>
</svg>
