<svg width="512" height="512" viewBox="0 0 512 512" fill="none" xmlns="http://www.w3.org/2000/svg">
<path d="M158.519 176.129C158.994 201.489 169.256 225.376 187.415 243.391C205.573 261.404 229.542 271.477 254.907 271.755C266.732 271.886 278.367 269.911 289.39 265.889C293.281 264.471 295.285 260.166 293.867 256.275C292.449 252.384 288.145 250.377 284.254 251.797C274.928 255.196 265.138 256.877 255.071 256.755C210.927 256.272 174.341 219.977 173.514 175.788C172.915 153.334 182.031 131.252 198.522 115.203C215.02 99.1509 237.352 90.6493 259.844 91.8542C302.84 93.8022 337.374 129.058 338.465 172.117C338.72 182.154 337.197 191.995 333.942 201.363C331.779 207.583 325.845 211.762 319.174 211.762C319.173 211.762 319.172 211.762 319.172 211.762C310.528 211.762 303.495 204.729 303.495 196.084V134.265C303.495 130.123 300.138 126.766 295.995 126.766C291.852 126.766 288.496 130.123 288.496 134.265V139.671C279.992 131.678 268.56 126.766 255.997 126.766C229.807 126.766 208.499 148.074 208.499 174.264C208.499 200.454 229.807 221.762 255.997 221.762C269.559 221.762 281.803 216.038 290.466 206.891C294.847 218.49 306.059 226.762 319.171 226.762H319.174C332.224 226.762 343.852 218.534 348.109 206.288C351.962 195.21 353.761 183.585 353.462 171.736C352.172 120.843 311.349 79.1738 260.589 76.8739C233.992 75.4359 207.552 85.4885 188.064 104.454C168.579 123.413 157.811 149.56 158.519 176.129ZM255.998 206.762C238.078 206.762 223.499 192.184 223.499 174.264C223.499 156.343 238.078 141.765 255.998 141.765C273.918 141.765 288.497 156.343 288.497 174.264C288.497 192.184 273.918 206.762 255.998 206.762Z" fill="white"/>
<path d="M509.097 199.113L298.826 34.8122C274.505 15.8101 240.454 15.7091 216.021 34.5702L2.93578 199.073C1.10786 200.472 -0.00309072 202.721 0.00090911 205.023V271.02C0.00090911 275.163 3.35776 278.52 7.50059 278.52C11.6434 278.52 15.0003 275.163 15.0003 271.02V217.802L203.594 323.152L15.0003 468.747V306.019C15.0003 301.876 11.6434 298.519 7.50059 298.519C3.35776 298.519 0.00090911 301.876 0.00090911 306.019V484.011C-0.0650881 488.037 3.47176 491.581 7.50059 491.511H504.479C508.48 491.565 512.063 488.034 511.979 484.011V205.909C512.159 203.335 511.176 200.703 509.097 199.113ZM29.4876 476.511L225.187 325.431C244.19 310.761 270.674 310.837 289.59 325.62L293.202 328.442C293.205 328.444 387.221 401.904 387.228 401.91C390.494 404.46 395.205 403.883 397.756 400.619C400.306 397.354 399.728 392.641 396.464 390.091L311.239 323.499L357.35 297.521C360.957 295.488 362.235 290.915 360.202 287.305C358.171 283.697 353.599 282.423 349.987 284.453L298.427 313.5C274.297 294.93 240.783 294.807 216.52 313.19L21.078 204.015L225.188 46.4417C244.191 31.7724 270.675 31.8494 289.591 46.6307L491.745 204.588L379.61 267.762C376.002 269.795 374.724 274.368 376.757 277.978C378.802 281.621 383.429 282.844 386.972 280.831L496.981 218.854V468.632L423.255 411.024C419.991 408.475 415.278 409.051 412.727 412.316C410.177 415.581 410.755 420.294 414.019 422.844L482.701 476.51H29.4876V476.511Z" fill="white"/>
</svg>
