<svg width="512" height="512" viewBox="0 0 512 512" fill="none" xmlns="http://www.w3.org/2000/svg">
<g clip-path="url(#clip0)">
<path d="M278.351 482.536C274.189 482.536 270.816 479.162 270.816 475.001V454.965C270.816 452.096 268.481 449.761 265.612 449.761H245.383C242.514 449.761 240.179 452.096 240.179 454.965V475.001C240.179 479.162 236.805 482.536 232.644 482.536C228.483 482.536 225.109 479.162 225.109 475.001V454.965C225.109 443.786 234.204 434.691 245.383 434.691H265.612C276.79 434.691 285.885 443.786 285.885 454.965V475.001C285.885 479.162 282.513 482.536 278.351 482.536Z" fill="white"/>
<path d="M327.943 207.103C325.468 203.759 320.749 203.057 317.403 205.531C314.059 208.008 313.356 212.726 315.831 216.071L353.247 266.606C357.409 272.227 357.108 280.693 352.562 285.881L312.25 331.885H198.745L158.434 285.881C153.888 280.693 153.587 272.227 157.749 266.606L232.033 166.276V223.444C222.617 230.682 217.112 241.751 217.112 253.833C217.112 274.998 234.332 292.218 255.498 292.218C276.664 292.218 293.883 274.998 293.883 253.833C293.883 242.294 288.749 231.519 279.967 224.261V167.633L296.513 189.979C298.989 193.325 303.708 194.027 307.052 191.552C310.397 189.075 311.1 184.356 308.625 181.012L276.305 137.36C271.218 130.488 263.634 126.547 255.499 126.547C247.364 126.547 239.78 130.488 234.693 137.36L145.638 257.639C137.286 268.919 137.915 285.33 147.102 295.814L180.72 334.178C172.325 338.092 166.49 346.607 166.49 356.463V392.411C166.49 403.415 173.761 412.754 183.751 415.876L185.807 475.265C185.947 479.336 189.291 482.539 193.332 482.539C193.421 482.539 193.509 482.538 193.598 482.535C197.757 482.391 201.011 478.904 200.867 474.744L198.868 416.989H313.135L311.135 474.744C310.992 478.904 314.247 482.391 318.405 482.535C318.493 482.538 318.582 482.539 318.67 482.539C322.711 482.539 326.055 479.336 326.196 475.265L328.263 415.531C337.726 412.111 344.508 403.039 344.508 392.411V356.463C344.508 346.607 338.673 338.092 330.278 334.178L363.896 295.814C373.083 285.331 373.712 268.919 365.36 257.639L327.943 207.103ZM255.498 141.616C258.855 141.616 261.944 143.288 264.192 146.325L264.897 147.278V228.047C264.897 230.582 266.172 232.948 268.29 234.341C274.88 238.677 278.814 245.964 278.814 253.831C278.814 266.687 268.354 277.146 255.498 277.146C242.641 277.146 232.182 266.687 232.182 253.831C232.182 245.591 236.4 238.125 243.464 233.856C245.723 232.492 247.103 230.046 247.103 227.407V145.961C249.323 143.164 252.283 141.616 255.498 141.616ZM329.438 392.408C329.438 397.651 325.172 401.916 319.93 401.916H191.067C185.824 401.916 181.559 397.651 181.559 392.408V356.461C181.559 351.219 185.825 346.953 191.067 346.953H319.93C325.173 346.953 329.438 351.219 329.438 356.461V392.408Z" fill="white"/>
<path d="M105.551 209.415C106.54 185.543 113.18 162.17 124.931 141.458C126.985 137.838 125.716 133.24 122.096 131.186C118.477 129.132 113.878 130.402 111.825 134.021C98.8006 156.975 91.4778 182.89 90.4691 209.342C77.466 212.648 67.8193 224.452 67.8193 238.47C67.8193 255.04 81.3007 268.521 97.8713 268.521C114.442 268.521 127.923 255.04 127.923 238.47C127.923 224.552 118.413 212.818 105.551 209.415ZM97.8713 253.452C89.6101 253.452 82.889 246.731 82.889 238.47C82.889 230.208 89.6101 223.487 97.8713 223.487C106.133 223.487 112.854 230.208 112.854 238.47C112.854 246.731 106.133 253.452 97.8713 253.452Z" fill="white"/>
<path d="M496.046 29.4629H471.832C463.036 29.4629 455.878 36.62 455.878 45.4167V49.9888H284.061V45.4167C284.061 36.62 276.904 29.4629 268.107 29.4629H243.893C235.096 29.4629 227.939 36.62 227.939 45.4167V49.9888H56.1216V45.4167C56.1216 36.62 48.9645 29.4629 40.1678 29.4629H15.9538C7.1571 29.4629 0 36.62 0 45.4167V69.6307C0 78.4274 7.1571 85.5845 15.9538 85.5845H40.1678C48.9645 85.5845 56.1216 78.4274 56.1216 69.6307V65.0585H186.924C166.005 74.667 147.121 88.6245 131.615 106.24C128.865 109.363 129.167 114.124 132.292 116.874C133.723 118.134 135.499 118.754 137.268 118.754C139.358 118.754 141.437 117.89 142.926 116.198C165.207 90.888 195.14 73.8733 227.939 67.6837V69.6317C227.939 78.4284 235.096 85.5855 243.893 85.5855H268.107C276.904 85.5855 284.061 78.4284 284.061 69.6317V67.6827C352.464 80.5713 403.571 139.559 406.458 209.414C393.591 212.814 384.076 224.55 384.076 238.471C384.076 255.041 397.558 268.523 414.128 268.523C430.699 268.523 444.18 255.041 444.18 238.471C444.18 224.455 434.535 212.651 421.533 209.344C419.124 145.962 380.628 90.6308 325.081 65.0605H455.878V69.6327C455.878 78.4294 463.036 85.5865 471.832 85.5865H496.046C504.843 85.5865 512 78.4294 512 69.6327V45.4167C512 36.62 504.843 29.4629 496.046 29.4629ZM41.0519 69.6307C41.0519 70.1179 40.655 70.5148 40.1678 70.5148H15.9538C15.4665 70.5148 15.0697 70.1179 15.0697 69.6307V45.4167C15.0697 44.9294 15.4665 44.5326 15.9538 44.5326H40.1678C40.655 44.5326 41.0519 44.9294 41.0519 45.4167V69.6307ZM429.111 238.469C429.111 246.73 422.39 253.451 414.128 253.451C405.867 253.451 399.146 246.73 399.146 238.469C399.146 230.207 405.867 223.486 414.128 223.486C422.39 223.486 429.111 230.207 429.111 238.469ZM268.991 69.6307C268.991 70.1179 268.594 70.5148 268.107 70.5148H243.893C243.406 70.5148 243.009 70.1179 243.009 69.6307V45.4167C243.009 44.9294 243.406 44.5326 243.893 44.5326H268.107C268.594 44.5326 268.991 44.9294 268.991 45.4167V69.6307ZM496.93 69.6307C496.93 70.1179 496.534 70.5148 496.046 70.5148H471.832C471.345 70.5148 470.948 70.1179 470.948 69.6307V45.4167C470.948 44.9294 471.345 44.5326 471.832 44.5326H496.046C496.534 44.5326 496.93 44.9294 496.93 45.4167V69.6307Z" fill="white"/>
</g>
<defs>
<clipPath id="clip0">
<rect width="512" height="512" fill="white"/>
</clipPath>
</defs>
</svg>
