<svg width="512" height="512" viewBox="0 0 512 512" fill="none" xmlns="http://www.w3.org/2000/svg">
<path d="M471.196 71.1111L470.758 70.6726C444.494 44.4101 409.577 29.9452 372.435 29.9452C335.295 29.9452 300.377 44.4101 274.113 70.6726L255.876 88.9114L237.173 70.2839C182.958 16.2914 94.8337 16.3799 40.7279 70.4838C15.1911 96.0206 0.73712 129.968 0.028289 166.076C-0.680542 202.181 12.4284 236.672 36.9422 263.191L226.961 468.757C234.834 477.274 245.988 482.152 257.584 482.152H257.729C269.376 482.11 280.557 477.15 288.402 468.541L416.63 327.846C419.404 324.802 419.185 320.087 416.142 317.313C413.099 314.539 408.383 314.757 405.609 317.801L277.381 458.495C272.266 464.107 265.268 467.212 257.677 467.238C257.644 467.238 257.612 467.238 257.578 467.238C250.024 467.238 243.042 464.185 237.91 458.634L47.8918 253.069C26.0075 229.394 14.3033 198.603 14.9366 166.368C15.5699 134.133 28.474 103.827 51.2709 81.0287C99.5729 32.7258 178.247 32.6443 226.648 80.8498L248.428 102.542V131.787C242.449 130.681 236.302 128.817 229.814 126.15C225.791 124.498 221.537 123.66 217.162 123.66C217.075 123.66 216.987 123.661 216.899 123.661C207.737 123.731 198.911 127.629 192.684 134.355C186.369 141.176 183.248 150.058 183.895 159.362C185.07 176.269 199.272 189.873 216.226 190.333C221.439 190.476 226.454 189.445 231.145 187.274C236.378 184.851 242.166 183.021 248.427 181.801V228.481H189.137C186.866 228.481 184.69 229.448 183.169 231.133C181.647 232.819 180.908 235.083 181.139 237.347C182.292 248.511 184.988 258.731 189.149 267.723C190.345 270.308 190.912 273.083 190.834 275.97C190.58 285.337 183.07 293.182 173.737 293.831C168.586 294.207 163.664 292.466 159.893 288.976C156.119 285.482 154.02 280.728 153.98 275.589C153.961 273.116 154.422 270.715 155.351 268.454C159.654 257.986 162.16 248.167 163.013 238.437L163.118 237.226C163.315 234.985 162.557 232.749 161.038 231.09C159.519 229.432 157.358 228.481 155.109 228.481H66.0411C51.8466 211.148 44.3119 189.522 44.7553 166.952C45.2364 142.461 55.0408 119.436 72.3609 102.116C90.1742 84.3025 113.859 74.4922 139.051 74.4922C156.185 74.4922 172.916 79.0961 187.435 87.8059C190.968 89.9254 195.547 88.7782 197.665 85.2479C199.784 81.7157 198.638 77.1366 195.106 75.0181C178.27 64.9185 158.886 59.5809 139.051 59.5809C109.876 59.5809 82.4466 70.9421 61.8169 91.5717C41.7579 111.631 30.4037 138.298 29.8469 166.66C29.2902 195.022 39.5876 222.114 58.8434 242.945L158.999 351.295C160.469 352.886 162.47 353.69 164.476 353.69C166.287 353.69 168.101 353.035 169.535 351.71C172.56 348.914 172.746 344.197 169.95 341.173L79.5655 243.393H147.339C146.252 249.62 144.344 256.017 141.562 262.786C139.875 266.891 139.037 271.236 139.072 275.703C139.142 284.866 143.04 293.692 149.767 299.918C155.999 305.688 163.949 308.791 172.373 308.791C173.17 308.791 173.97 308.763 174.776 308.707C191.68 307.531 205.284 293.329 205.744 276.375C205.887 271.168 204.857 266.149 202.685 261.459C200.161 256.007 198.279 249.952 197.063 243.393H248.431V302.76C248.431 305.232 249.484 307.6 251.32 309.257C253.156 310.912 255.622 311.722 258.078 311.463C269.243 310.31 279.463 307.616 288.453 303.454C291.039 302.258 293.819 301.679 296.702 301.768C306.067 302.022 313.912 309.531 314.564 318.862C314.922 324.02 313.199 328.937 309.709 332.708C306.216 336.482 301.461 338.582 296.321 338.622C293.843 338.647 291.45 338.178 289.188 337.25C278.714 332.947 268.895 330.441 259.172 329.59L257.943 329.482C255.501 329.262 253.073 330.095 251.27 331.747C249.466 333.4 248.432 335.751 248.432 338.197V426.075L191.592 364.582C188.797 361.558 184.08 361.373 181.056 364.168C178.031 366.963 177.846 371.68 180.641 374.705L248.865 448.512C251.14 450.971 254.235 452.325 257.585 452.325C260.967 452.325 264.084 450.948 266.362 448.449L453.603 243.006C492.992 199.789 491.448 133.539 450.09 92.1782L449.672 91.7606C429.042 71.131 401.613 59.7698 372.438 59.7698C353.407 59.7698 334.711 64.7067 318.367 74.0448C314.792 76.0878 313.551 80.643 315.594 84.217C317.636 87.793 322.192 89.0337 325.767 86.9917C339.86 78.938 355.998 74.6811 372.437 74.6811C397.629 74.6811 421.313 84.4914 439.126 102.305L439.544 102.722C473.861 137.038 476.416 191.188 446.393 228.48H386.434C387.573 222.321 389.52 215.999 392.324 209.32C394.042 205.231 394.913 200.892 394.913 196.426C394.913 187.261 391.082 178.404 384.402 172.126C377.628 165.759 368.768 162.578 359.459 163.15C342.544 164.199 328.835 178.299 328.248 195.25C328.067 200.452 329.057 205.475 331.191 210.178C333.699 215.711 335.548 221.845 336.711 228.481H316.817C312.699 228.481 309.361 231.818 309.361 235.937C309.361 240.056 312.699 243.393 316.817 243.393H344.422C346.714 243.393 348.914 242.421 350.455 240.726C351.999 239.031 352.761 236.75 352.546 234.456C351.483 223.294 348.866 213.053 344.769 204.018C343.594 201.428 343.049 198.652 343.148 195.766C343.473 186.401 351.041 178.612 360.379 178.032C365.542 177.715 370.442 179.473 374.187 182.991C377.935 186.514 379.999 191.285 379.999 196.426C379.999 198.899 379.52 201.294 378.573 203.547C374.192 213.984 371.61 223.783 370.681 233.509L370.591 234.449C370.371 236.735 371.131 239.02 372.674 240.719C374.218 242.418 376.42 243.392 378.714 243.392H433.073L263.342 429.623V345.136C269.814 346.195 276.464 348.146 283.519 351.045C287.625 352.731 291.988 353.57 296.433 353.535C305.597 353.465 314.424 349.566 320.651 342.837C326.966 336.014 330.085 327.131 329.436 317.826C328.257 300.923 314.055 287.321 297.102 286.862C291.882 286.715 286.875 287.752 282.186 289.922C276.519 292.546 270.203 294.475 263.342 295.686V243.394H285.042C289.161 243.394 292.498 240.057 292.498 235.938C292.498 231.819 289.161 228.482 285.042 228.482H263.342V173.166C263.342 171.053 262.446 169.041 260.877 167.626C259.308 166.213 257.208 165.529 255.112 165.751C244.004 166.91 233.832 169.599 224.884 173.742C222.298 174.938 219.52 175.511 216.633 175.427C207.268 175.172 199.422 167.661 198.773 158.328C198.415 153.171 200.139 148.255 203.63 144.486C207.123 140.712 211.877 138.612 217.016 138.573C219.491 138.534 221.889 139.015 224.148 139.944C234.621 144.246 244.44 146.753 254.17 147.606L255.238 147.7C257.316 147.875 259.383 147.181 260.924 145.769C262.465 144.356 263.343 142.362 263.343 140.272V102.534L284.658 81.2176C308.105 57.7715 339.277 44.8585 372.435 44.8585C405.594 44.8585 436.767 57.7715 460.213 81.2186L460.651 81.657C507.645 128.649 509.388 203.935 464.622 253.053L427.014 294.317C424.241 297.362 424.459 302.077 427.502 304.85C430.545 307.624 435.262 307.407 438.035 304.362L475.643 263.098C525.787 208.08 523.834 123.75 471.196 71.1111Z" fill="white"/>
</svg>
