<svg width="512" height="512" viewBox="0 0 512 512" fill="none" xmlns="http://www.w3.org/2000/svg">
<path d="M366 0H146C125.322 0 108.5 16.822 108.5 37.5V474.5C108.5 495.178 125.322 512 146 512H366C386.678 512 403.5 495.178 403.5 474.5V37.5C403.5 16.822 386.678 0 366 0ZM388.5 407H176C171.858 407 168.5 410.358 168.5 414.5C168.5 418.642 171.858 422 176 422H388.5V474.5C388.5 486.907 378.407 497 366 497H146C133.593 497 123.5 486.907 123.5 474.5V422H146C150.142 422 153.5 418.642 153.5 414.5C153.5 410.358 150.142 407 146 407H123.5V75H388.5V407ZM388.5 60H123.5V37.5C123.5 25.093 133.593 15 146 15H366C378.407 15 388.5 25.093 388.5 37.5V60Z" fill="white"/>
<path d="M286 30H256C251.858 30 248.5 33.358 248.5 37.5C248.5 41.642 251.858 45 256 45H286C290.142 45 293.5 41.642 293.5 37.5C293.5 33.358 290.142 30 286 30Z" fill="white"/>
<path d="M256 437C243.593 437 233.5 447.093 233.5 459.5C233.5 471.907 243.593 482 256 482C268.407 482 278.5 471.907 278.5 459.5C278.5 447.093 268.407 437 256 437ZM256 467C251.864 467 248.5 463.636 248.5 459.5C248.5 455.364 251.864 452 256 452C260.136 452 263.5 455.364 263.5 459.5C263.5 463.636 260.136 467 256 467Z" fill="white"/>
<path d="M226 45C230.142 45 233.5 41.6421 233.5 37.5C233.5 33.3579 230.142 30 226 30C221.858 30 218.5 33.3579 218.5 37.5C218.5 41.6421 221.858 45 226 45Z" fill="white"/>
</svg>
