<svg width="512" height="512" viewBox="0 0 512 512" fill="none" xmlns="http://www.w3.org/2000/svg">
<g clip-path="url(#clip0)">
<path d="M483.312 10H453C443.614 10 443.187 25 453 25H483.312C490.859 25 497 31.141 497 38.688V226.794H239.313V179.822C239.313 171.317 232.394 164.398 223.889 164.398H86.24V38.688C86.24 31.141 92.381 25 99.928 25H410C419.386 25 419.813 10 410 10H99.928C84.109 10 71.24 22.87 71.24 38.688V164.399H15.424C6.919 164.399 0 171.318 0 179.823V449.575C0 458.081 6.919 465 15.424 465H172.083V479.557C172.083 489.48 178.628 497.913 187.669 500.869C187.787 500.908 187.903 500.951 188.023 500.988C188.064 501.001 188.106 501.011 188.146 501.023C190.229 501.657 192.437 502.001 194.725 502.001H276.605C278.88 502.001 281.076 501.66 283.15 501.033C283.203 501.017 283.257 501.004 283.31 500.987C283.417 500.954 283.521 500.915 283.627 500.881C292.686 497.936 299.247 489.493 299.247 479.558V366.581H387.176C396.562 366.581 396.989 351.581 387.176 351.581H356.348L346 306.548H483.311C498.936 306.548 511.999 293.523 511.999 277.86V38.688C512 22.869 499.131 10 483.312 10ZM497 241.794V277.845C497 285.357 490.82 291.547 483.327 291.547H299.196C298.45 279.732 288.605 270.347 276.605 270.347H239.313V241.794H497ZM276.605 285.348C280.819 285.348 284.247 288.776 284.247 292.989V454.899H187.083V292.989C187.083 288.776 190.511 285.347 194.725 285.347H276.605V285.348ZM15 449.576C15.424 449.149 14.187 179.308 15.423 179.4C15.424 179.399 223.889 179.399 223.889 179.399C224.123 179.399 224.313 179.589 224.313 179.823V270.348H211.782V199.333C211.782 195.191 208.424 191.833 204.282 191.833H35.031C30.889 191.833 27.531 195.191 27.531 199.333V323C27.531 332.385 42.531 332.813 42.531 323V206.833H196.782V270.348C183.794 269.801 172.083 279.545 172.083 292.99V401.894H42.531V364.482C42.531 355.097 27.531 354.669 27.531 364.482V409.394C27.531 413.536 30.889 416.894 35.031 416.894H172.083V450C171.657 449.578 14.91 450.808 15 449.576ZM194.768 487C193.987 487 193.234 486.886 192.524 486.675C192.509 486.67 192.493 486.666 192.478 486.662C192.44 486.65 192.403 486.637 192.365 486.625C189.304 485.628 187.084 482.748 187.084 479.359V469.899H284.248V479.359C284.248 482.749 282.029 485.628 278.967 486.626C278.929 486.638 278.892 486.652 278.854 486.663C278.838 486.668 278.822 486.672 278.806 486.677C278.096 486.887 277.343 487.001 276.563 487.001H194.768V487ZM340.957 351.581H299.247V306.548H330.609L340.957 351.581Z" fill="white"/>
<path d="M127.46 425.793H111.854C101.923 426.137 101.931 440.452 111.854 440.793H127.46C137.391 440.449 137.383 426.134 127.46 425.793Z" fill="white"/>
<path d="M229.054 307.992H242.277C252.208 307.648 252.2 293.333 242.277 292.992H229.054C219.123 293.336 219.13 307.651 229.054 307.992Z" fill="white"/>
</g>
<defs>
<clipPath id="clip0">
<rect width="512" height="512" fill="white"/>
</clipPath>
</defs>
</svg>
