<svg width="512" height="512" viewBox="0 0 512 512" fill="none" xmlns="http://www.w3.org/2000/svg">
<path d="M474.427 30.1084H310.672C306.521 30.1084 303.157 33.4734 303.157 37.6234C303.157 41.7734 306.521 45.1384 310.672 45.1384H474.426C486.856 45.1384 496.97 55.2514 496.97 67.6824V330.689H460.942L460.941 99.8424C460.941 87.4114 450.827 77.2984 438.397 77.2984H73.602C61.171 77.2984 51.058 87.4114 51.058 99.8424V330.689H15.029V67.6814C15.029 55.2504 25.143 45.1374 37.573 45.1374H280.613C284.764 45.1374 288.128 41.7724 288.128 37.6224C288.128 33.4724 284.764 30.1074 280.613 30.1074H37.573C16.855 30.1084 0 46.9634 0 67.6814V371.529C0 392.247 16.855 409.102 37.573 409.102H202.804L195.23 466.863H168.528C164.377 466.863 161.013 470.228 161.013 474.378C161.013 478.528 164.377 481.893 168.528 481.893H343.471C347.622 481.893 350.986 478.528 350.986 474.378C350.986 470.228 347.622 466.863 343.471 466.863H316.77L309.196 409.102H388.825C392.976 409.102 396.34 405.737 396.34 401.587C396.34 397.437 392.976 394.072 388.825 394.072H37.573C25.143 394.072 15.029 383.959 15.029 371.528V345.717H496.97V371.528C496.97 383.959 486.856 394.072 474.426 394.072H418.883C414.732 394.072 411.368 397.437 411.368 401.587C411.368 405.737 414.732 409.102 418.883 409.102H474.426C495.144 409.102 511.999 392.247 511.999 371.529V67.6814C512 46.9634 495.145 30.1084 474.427 30.1084ZM301.612 466.863H210.389L217.963 409.102H294.037L301.612 466.863ZM66.087 99.8414C66.087 95.6974 69.458 92.3264 73.602 92.3264H438.398C442.542 92.3264 445.913 95.6974 445.913 99.8414V136.826H66.087V99.8414ZM66.087 151.856H445.913V330.689H409.379V297.19C409.379 293.04 406.015 289.675 401.864 289.675H273.989C269.838 289.675 266.474 293.04 266.474 297.19V330.689H245.525V297.19C245.525 293.04 242.161 289.675 238.01 289.675H110.136C105.985 289.675 102.621 293.04 102.621 297.19V330.689H66.087V151.856ZM394.349 330.688H281.504V304.704H394.349V330.688ZM230.496 330.688H117.651V304.704H230.496V330.688Z" fill="white"/>
<path d="M94.7481 102.455C88.3841 102.455 83.2061 107.633 83.2061 113.998C83.2061 120.363 88.3841 125.54 94.7481 125.54C101.112 125.54 106.29 120.362 106.29 113.998C106.291 107.634 101.113 102.455 94.7481 102.455Z" fill="white"/>
<path d="M131.791 102.455C125.427 102.455 120.249 107.633 120.249 113.998C120.249 120.363 125.427 125.54 131.791 125.54C138.155 125.54 143.333 120.362 143.333 113.998C143.333 107.634 138.155 102.455 131.791 102.455Z" fill="white"/>
<path d="M168.833 102.455C162.469 102.455 157.291 107.633 157.291 113.998C157.291 120.363 162.469 125.54 168.833 125.54C175.198 125.54 180.376 120.362 180.376 113.998C180.376 107.634 175.198 102.455 168.833 102.455Z" fill="white"/>
<path d="M110.136 271.333H164.805C168.956 271.333 172.32 267.968 172.32 263.818C172.32 259.668 168.956 256.303 164.805 256.303H117.65V190.365H394.333V256.303H194.863C190.712 256.303 187.348 259.668 187.348 263.818C187.348 267.968 190.712 271.333 194.863 271.333H401.847C405.998 271.333 409.362 267.968 409.362 263.818V182.851C409.362 178.701 405.998 175.336 401.847 175.336H110.136C105.985 175.336 102.621 178.701 102.621 182.851V263.819C102.621 267.969 105.985 271.333 110.136 271.333Z" fill="white"/>
</svg>
